<?xml version="1.0" encoding="utf-8"?>
<!-- Generator: Adobe Illustrator 26.0.1, SVG Export Plug-In . SVG Version: 6.00 Build 0)  -->
<svg version="1.1" id="Layer_1" xmlns="http://www.w3.org/2000/svg" xmlns:xlink="http://www.w3.org/1999/xlink" x="0px" y="0px"
	 viewBox="0 0 243.93 374.69" style="enable-background:new 0 0 243.93 374.69;" xml:space="preserve">
<style type="text/css">
	.st0{fill:#FFFFFF;}
</style>
<g>
	<path class="st0" d="M209.33,116.43c-3.9,5.23-7.53,10.68-11.76,15.63c-4.21,4.94-8.61,9.65-13.89,13.04c0-1.58,0-3.15,0-4.73
		c-7.49,0-14.85,0-22.21,0c0,3.99,0,7.79,0,11.68c-6.04,2.53-8.79,7.38-10.06,16.46c-1.3,9.25-1.84,18.6-2.73,28.04
		c-10.39,3.95-21.18,4.59-28.8-3.98c-6.45-7.26-10.23-16.88-14.86-24.88c0.52,4.57,0.79,10.21,1.9,15.68
		c1.18,5.81,2.73,11.61,4.87,17.14c5.53,14.32,16.62,20.47,31.05,17.73c2.39-0.45,4.78-0.86,7.5-1.34c0.61,2.37,1.14,4.37,1.77,6.81
		c2.08-4.54,2.92-9.24,5.7-11.99c21.74-21.45,36.63-47.54,50.4-74.28c3.05-5.92,2.98-13.45,4.34-20.24
		C211.48,116.95,210.41,116.69,209.33,116.43z M173.84,143.78c2.09-0.72,2.73,0.01,2.64,1.89c-0.05,0.98-0.05,1.97-0.04,2.95
		c-0.84,0.28-1.71,0.53-2.6,0.75C173.84,147.46,173.84,145.6,173.84,143.78z M171.46,143.82c0,2.01,0,4,0,6.03
		c-0.47,0.08-0.94,0.14-1.42,0.2c-0.45,0.05-0.88,0.11-1.31,0.17c0.01-1.62,0.03-3.18-0.03-4.73
		C168.62,143.38,169.6,143.2,171.46,143.82z M163.81,143.52c0.98,0.05,1.69,0.08,2.63,0.12c0,2.39,0,4.66,0,6.97
		c-0.93,0.18-1.81,0.39-2.63,0.63C163.81,148.65,163.81,146.16,163.81,143.52z M156.72,194.76c-6.07-19.1-0.26-25.83,22.93-25.55
		C171.18,178.65,164.22,186.41,156.72,194.76z M178.87,147.69c0-1.33,0-2.64,0-3.94c2.47-0.29,2.49-0.29,2.53,1.79
		c0.01,0.31,0.01,0.61,0.01,0.92C180.58,146.9,179.74,147.31,178.87,147.69z"/>
	<path class="st0" d="M125.52,241.43c-0.53-0.88-1.3-1.58-1.98-2.34c-0.47-0.52-1.15-0.98-1.76-1.43c-1.75-1.31-3.53-2.62-5.56-3.43
		c-1.57-0.62-3.19-1.15-4.86-1.48c-2.22-0.45-4.46-0.53-6.71-0.44c-1.22,0.04-2.44,0.24-3.62,0.54c-2.13,0.54-4.23,1.19-6.18,2.28
		c-1.66,0.92-3.23,1.96-4.65,3.21c-2.4,2.12-4.33,4.61-5.78,7.48c-1.44,2.84-2.24,5.87-2.52,9.01c-0.16,1.85-0.13,3.74,0.18,5.61
		c0.36,2.19,0.95,4.3,1.82,6.34c0.52,1.24,1.17,2.39,1.92,3.51c0.91,1.36,1.89,2.67,3.02,3.83c1.34,1.37,2.87,2.52,4.48,3.55
		c1.23,0.79,2.51,1.48,3.88,2c2.24,0.85,4.55,1.42,6.94,1.65c1.57,0.15,3.17,0.2,4.73,0c1.93-0.25,3.83-0.65,5.69-1.29
		c1.79-0.62,3.49-1.4,5.04-2.44c1.97-1.32,3.89-2.74,5.37-4.64c0.4-0.51,0.92-0.93,1.14-1.76c-4.57,3.81-9.68,5.66-15.49,4.94
		c-5.81-0.73-10.47-3.54-13.78-8.41c-2.4-3.53-3.55-7.48-3.34-11.76c0.25-5,2.2-9.34,5.7-12.86c3.46-3.48,7.75-5.35,12.66-5.61
		c5.36-0.29,10.02,1.53,14.15,4.92C125.99,241.96,125.7,241.73,125.52,241.43z"/>
	<path class="st0" d="M108.42,270.66c0.29,0.1,0.44-0.33,0.61-0.55c0.89-1.18,1.8-2.34,2.63-3.56c0.71-1.04,1.53-2,2.22-3.05
		c0.66-1,0.75-1.09,1.91-0.81c0.21,0.05,0.42,0.12,0.62,0.19c2.57,0.83,5.13,1.67,7.7,2.5c0.18,0.06,0.38,0.26,0.55,0.08
		c0.2-0.21-0.03-0.41-0.14-0.57c-1.19-1.66-2.39-3.32-3.59-4.97c-0.57-0.78-1.17-1.54-1.72-2.33c-0.3-0.43-0.56-0.85-0.08-1.42
		c1.09-1.29,2.06-2.67,3.02-4.05c0.78-1.13,1.6-2.23,2.39-3.35c0.1-0.14,0.27-0.3,0.1-0.47c-0.16-0.17-0.4-0.2-0.6-0.09
		c-0.75,0.42-1.58,0.61-2.38,0.87c-2.1,0.69-4.2,1.37-6.3,2.04c-0.35,0.11-0.72,0.13-0.99-0.24c-0.78-1.08-1.58-2.15-2.37-3.23
		c-1.05-1.43-2.08-2.86-3.14-4.28c-0.11-0.15-0.2-0.47-0.47-0.35c-0.2,0.09-0.12,0.36-0.12,0.54c-0.01,2.9,0,5.8,0,8.7
		c0,1.07-0.16,1.27-1.18,1.59c-2.8,0.9-5.61,1.74-8.38,2.72c-0.16,0.06-0.39,0.05-0.38,0.29c0.01,0.22,0.24,0.23,0.4,0.29
		c2.9,0.95,5.8,1.89,8.71,2.83c0.55,0.18,0.85,0.5,0.84,1.12c-0.02,1.5-0.01,3-0.01,4.5c0,0,0,0,0,0c0,1.42-0.01,2.84,0.01,4.26
		C108.27,270.13,108.12,270.56,108.42,270.66z"/>
	<path class="st0" d="M112.13,320.44c0.11,0,0.14-0.11,0.18-0.19c0.14-0.31,0.21-0.63,0.22-0.97c0.02-0.5-0.02-1.01,0.1-1.38
		c0.05-0.19,0.06-0.27,0.08-0.34c0.08-0.2,0.04-0.53,0.31-0.55c0.27-0.02,0.31,0.29,0.4,0.49c0.46,1.06,0.96,2.11,0.97,3.3
		c0,0.15,0.05,0.3,0.09,0.44c0.05,0.15,0.07,0.39,0.27,0.37c0.19-0.02,0.27-0.25,0.27-0.43c0.02-0.41,0.04-0.82,0.01-1.23
		c-0.1-1.39-0.4-2.76-0.98-4.02c-0.66-1.44-0.91-2.92-0.78-4.48c0.06-0.66,0.24-1.32,0.17-1.99c-0.02-0.15,0-0.35-0.17-0.39
		c-0.18-0.04-0.23,0.17-0.3,0.3c-0.35,0.67-0.51,1.39-0.57,2.15c-0.08,0.92-0.34,1.84-0.21,2.77c0.17,1.18-0.08,2.32-0.38,3.42
		c-0.24,0.9-0.07,1.71,0.14,2.55C111.99,320.33,112.01,320.44,112.13,320.44z"/>
	<path class="st0" d="M133.64,325.13c-0.11,0.04-0.22,0.1-0.33,0.15c-0.43,0.2-0.8,0.49-1.19,0.76c-0.84,0.58-1.73,1-2.73,1.28
		c-1.98,0.54-3.14,2.02-3.91,3.86c-0.03,0.07-0.05,0.15,0.02,0.21c0.07,0.06,0.14,0.01,0.21-0.02c0.37-0.18,0.61-0.5,0.82-0.83
		c0.54-0.85,1.39-1.3,2.22-1.77c0.19-0.11,0.42-0.17,0.67-0.11c-0.05,0.26-0.21,0.44-0.32,0.65c-0.04,0.09-0.13,0.2-0.05,0.3
		c0.1,0.12,0.23,0.03,0.33-0.01c0.33-0.14,0.58-0.38,0.84-0.62c0.51-0.46,1-0.95,1.6-1.28c0.94-0.53,1.42-1.47,2.05-2.27
		c0.06-0.07,0.15-0.19,0.05-0.29C133.85,325.03,133.73,325.09,133.64,325.13z"/>
	<path class="st0" d="M104.27,324.06c-0.16,0.04-0.13,0.22-0.15,0.35c-0.15,0.88-0.06,1.8-0.35,2.5c-0.26,0.95-0.4,1.76-0.38,2.59
		c0.03,1.29,0.28,2.57,0.1,3.87c-0.04,0.26-0.03,0.66,0.27,0.7c0.36,0.05,0.33-0.38,0.38-0.62c0.19-1.02,0.22-2.05,0.15-3.08
		c-0.06-0.85-0.13-1.69,0.11-2.54c0.14-0.48,0.23-0.98,0.3-1.47c0.1-0.69,0.28-1.39-0.14-2.04
		C104.48,324.2,104.44,324.02,104.27,324.06z"/>
	<path class="st0" d="M124.64,340.66c0.73-0.11,1.15-0.63,1.57-1.15c0.72-0.89,1.25-1.92,2.05-2.74c0.41-0.42,0.66-0.9,0.79-1.38
		c0.04-0.16,0.07-0.25,0.08-0.34c0.02-0.13,0.11-0.28-0.05-0.37c-0.14-0.07-0.27,0.01-0.37,0.11c-0.11,0.1-0.22,0.22-0.3,0.34
		c-0.22,0.35-0.49,0.66-0.78,0.95c-0.55,0.53-1.01,1.14-1.41,1.78c-0.41,0.66-0.85,1.3-1.42,1.83c-0.17,0.16-0.29,0.39-0.42,0.59
		c-0.06,0.1-0.14,0.23-0.07,0.34C124.39,340.76,124.53,340.68,124.64,340.66z"/>
	<path class="st0" d="M183.87,119.81c-7.63,0-15.09,0-22.63,0c0,6.26,0,12.34,0,18.57c7.71,0,15.17,0,22.63,0
		C183.87,132.07,183.87,125.93,183.87,119.81z M172.69,137.09c-4.36,0.04-7.81-3.37-7.8-7.74c0-4.3,3.32-7.64,7.61-7.66
		c4.44-0.02,7.81,3.3,7.8,7.7C180.29,133.66,176.94,137.05,172.69,137.09z"/>
	<path class="st0" d="M180.78,105.96c-2.11-7.72-5.47-14.59-8.16-22.22c-2.65,6.78-5.14,13.08-7.54,19.42
		c-0.3,0.79-0.04,1.78-0.04,2.8C170.07,105.96,174.99,105.96,180.78,105.96z"/>
	<path class="st0" d="M163.39,112.47c0.44,0.07,0.96,0.23,1.48,0.23c5.03,0.02,10.06-0.07,15.08,0.05c2.36,0.05,2.11-1.4,2.11-2.9
		c0-1.51,0.25-2.97-2.11-2.9c-4.1,0.12-8.2,0.03-12.3,0.03c-5.1,0-5.1,0-4.44,5.17C163.22,112.22,163.28,112.28,163.39,112.47z"/>
	<path class="st0" d="M182.19,114.83c-0.37-0.58-1.2-1.21-1.84-1.22c-5.18-0.1-10.36-0.08-15.54-0.02c-0.57,0.01-1.4,0.36-1.66,0.81
		c-0.67,1.17-1.08,2.49-1.68,3.95c7.52,0,14.73,0,22.27,0C183.18,117.03,182.83,115.84,182.19,114.83z"/>
	<path class="st0" d="M172.01,130.42c-3.43-3.18-3.43-3.18-4.4-2.41c1.51,1.59,3.02,3.17,4.57,4.79c2.05-2.15,3.99-4.19,5.92-6.23
		c-0.13-0.21-0.26-0.42-0.39-0.62C175.15,126.45,174.25,129.45,172.01,130.42z"/>
	<path class="st0" d="M155.64,346.14c-0.19-0.52-0.4-1.03-0.63-1.53c-0.3-0.65-0.59-1.31-0.83-1.98c-0.21-0.57-0.49-1.07-0.86-1.54
		c-0.94-1.2-2.14-2.12-3.23-3.16c-1.23-1.18-2.09-2.58-2.61-4.18c-0.21-0.65-0.52-1.18-1-1.65c-0.37-0.35-0.86-0.53-1.23-0.87
		c-1.29-1.18-2.53-2.41-3.49-3.9c-0.67-1.03-1.21-2.15-2.01-3.1c-0.72-0.87-1.24-1.82-1.34-2.99c-0.05-0.67-1.03-1.09-1.67-0.77
		c-0.73,0.37-1.45,0.77-2.17,1.18c-1.48,0.85-3,1.63-4.62,2.18c-0.95,0.32-1.3,0.23-1.94-0.55c-0.52-0.64-1.03-1.28-1.47-1.98
		c-0.63-0.99-1.37-1.91-1.84-3c-0.47-1.09-0.9-2.2-1.26-3.33c-0.66-2.09-1.91-3.85-3.2-5.56c-0.95-1.26-1.81-2.55-2.49-3.97
		c-0.47-0.99-0.99-1.96-1.59-2.88c-0.46-0.69-0.96-0.76-1.53-0.16c-0.98,1.01-2.09,1.8-3.38,2.37c-1.41,0.62-2.8,1.28-4.34,1.51
		c-0.44,0.07-0.85,0.21-1.16,0.5c-1.06,0.98-2.31,1.68-3.47,2.52c-0.69,0.5-1.45,0.76-2.3,0.75c-0.41,0-0.83,0.01-1.19,0.24
		c-0.98,0.63-2.01,1.22-2.81,2.09c-0.38,0.41-0.61,0.39-0.97-0.05c-0.36-0.43-0.69-0.9-1.1-1.28c-0.47-0.44-0.89-0.92-1.21-1.48
		c-0.41-0.7-0.8-1.4-1.25-2.07c-0.4-0.61-0.85-0.71-1.44-0.29c-0.7,0.5-1.49,0.82-2.24,1.23c-0.65,0.36-1.41,0.55-1.88,1.18
		c-0.89,1.21-2.03,1.98-3.56,2.16c-0.64,0.08-1.23,0.34-1.69,0.84c-0.85,0.92-1.91,1.52-3.1,1.85c-1.1,0.3-2.08,0.74-2.84,1.64
		c-0.42,0.5-1,0.67-1.66,0.46c-0.2-0.06-0.42-0.1-0.62-0.15c-0.79-0.2-1.52-0.12-2.25,0.27c-0.62,0.33-1.21,0.7-1.81,1.06
		c-0.29,0.17-0.57,0.38-0.9,0.45c-0.46,0.1-0.85,0.3-1.22,0.55c-8.52-4.91-16.37-10.67-22.07-19.24c-2.12-3.18-3.59-7.21-4.05-11.01
		c-1.78-14.68,4.57-26.61,14.12-37.01c7.41-8.07,15.09-15.92,23-23.5c13.29-12.73,23.84-26.77,23.67-46.24
		c-0.03-3.85-1.18-7.68-1.98-12.54c-7.28,6.45-13.08,11.58-18.87,16.71c-0.12-0.11-0.25-0.22-0.37-0.33
		c-0.82,0.76-1.64,1.5-2.47,2.23c4.47-13.56,11.09-22.28,20.96-26.17c10.95-4.32,17.93-13.77,21.43-28.57
		c8.81-37.35-4.87-90.23-28.76-111.04c-0.58-0.51-1.44-0.39-4.3-1.06c0.33,9.38,0.17,18.06,1.01,26.54
		c2.63,26.4,5.59,52.74,8.54,79.08c0.85,7.54-0.77,12.41-5.58,16.92c-12.67,11.89-19.63,29.52-19.74,49.66
		c-0.03,0.02-0.06,0.05-0.09,0.07c0.18,3.29,0.42,6.58,0.63,9.87c0.12,1.99-0.3,4.62-1.54,5.98c-3.88,4.22-8.12,8.15-12.48,11.87
		c-13.51,11.54-23.75,24.91-25.52,43.35c-2.22,23.03,5.18,42.36,22.82,57.29c0.7,0.6,1.42,1.18,2.14,1.74
		c-0.04,0.04-0.06,0.09-0.04,0.17c0.05,0.19,0.24,0.18,0.43,0.14c12.66,9.86,27.71,15.5,43.09,18.97
		c19.62,4.42,39.76,6.53,59.68,9.6c4.16,0.64,8.33,1.34,12.52,1.5c1.28,0.05,2.62-1.62,3.94-2.5c-1.27-0.85-2.45-2.25-3.82-2.46
		C166.9,347.87,161.28,346.95,155.64,346.14z M92.93,45.04c0.61-0.5,1.21-1.01,1.82-1.51c7.04,16.91,15.5,33.01,20.74,50.94
		c6.11,20.9-0.74,35.33-16.02,40.8C97.3,105.27,95.11,75.16,92.93,45.04z M73.38,322.64c-2.04-1.07-4.06-2.15-6.05-3.27
		c1.19-0.75,2.44-1.37,3.9-1.6c1.4-0.22,2.87,0.23,3.63,1.56c0.07,0.12,0.12,0.27,0.3,0.22c0.16-0.05,0.18-0.2,0.17-0.34
		c-0.03-0.37-0.1-0.72-0.32-1.03c-0.2-0.29-0.21-0.6,0.06-0.82c0.69-0.54,1.47-0.99,2.32-1.1c1.15-0.16,2.22-0.52,2.99-1.33
		c1.05-1.09,2.25-1.78,3.74-1.98c0.07-0.01,0.15-0.05,0.22-0.06c0.54-0.08,0.87-0.41,1.2-0.83c1.03-1.32,2.23-2.45,3.76-3.18
		c0.17-0.08,0.37-0.26,0.54-0.1c0.16,0.14,0.09,0.37,0.05,0.57c-0.11,0.54-0.25,1.07-0.2,1.63c0.05,0.59-0.01,1.16-0.22,1.71
		c-0.45,1.18-1.09,2.18-2.45,2.48c-0.52,0.12-1.04,0.26-1.52,0.48c-2.35,1.07-4.73,2.1-6.83,3.66c-1.11,0.83-2.43,1.31-3.56,2.13
		C74.55,321.84,73.97,322.25,73.38,322.64z M82.1,327.11c-0.93-0.46-1.86-0.92-2.78-1.4c-1.29-0.66-2.58-1.32-3.86-1.99
		c0.11-0.11,0.23-0.22,0.37-0.31c1.01-0.6,2.07-1.15,3.18-1.57c0.07-0.03,0.15-0.05,0.22-0.05c0.98-0.08,1.9-0.41,2.86-0.6
		c0.22-0.04,0.45-0.1,0.67-0.13c0.3-0.04,0.43,0.15,0.29,0.39c-0.49,0.82-0.67,1.8-1.41,2.48c-0.29,0.27-0.6,0.51-0.9,0.77
		c-0.08,0.06-0.2,0.13-0.12,0.26c0.05,0.09,0.16,0.08,0.25,0.06c0.38-0.05,0.77-0.13,1.04-0.42c0.75-0.8,1.55-1.54,2.37-2.27
		c0.13-0.12,0.23-0.28,0.32-0.44c0.49-0.81,1.13-1.47,1.88-2.04c0.58-0.45,1.17-0.88,1.75-1.32c0.92-0.7,1.76-1.51,2.76-2.1
		c0.75-0.45,1.57-0.75,2.5-0.71c-0.14,0.35-0.26,0.65-0.37,0.95c-0.03,0.09-0.15,0.19-0.03,0.28c0.09,0.06,0.17-0.02,0.25-0.07
		c0.31-0.19,0.6-0.4,0.88-0.65c1.4-1.27,2.7-2.64,4.14-3.87c1.1-0.94,2.29-1.26,3.71-1.16c1.14,0.08,2.28,0.45,3.45,0.13
		c0.2-0.05,0.41,0.08,0.61,0.15c0.53,0.21,1.07,0.4,1.66,0.62c-0.03-0.39-0.24-0.63-0.49-0.82c-0.79-0.58-1.46-1.34-2.5-1.54
		c-0.27-0.05-0.32-0.21-0.07-0.4c0.69-0.53,1.37-1.06,2.18-1.42c0.52-0.23,1.09-0.22,1.62-0.45c1.73-0.75,3.47-1.5,5.15-2.37
		c0.46-0.23,0.6-0.15,0.75,0.35c0.04,0.13,0.06,0.27,0.08,0.4c0.1,0.73,0.3,1.43,0.67,2.07c0.2,0.34,0.22,0.72,0.19,1.11
		c-0.1,1.08,0.05,2.09,0.82,2.94c0.39,0.42,0.54,0.94,0.55,1.51c0.02,0.56-0.14,1.08-0.28,1.61c-0.06,0.22-0.15,0.45-0.06,0.67
		c0.28,0.75,0.48,1.55,0.98,2.19c0.34,0.44,0.51,0.89,0.52,1.42c0.02,1.01-0.06,2.01-0.26,3c-0.21,1.05-0.24,2.08,0.03,3.12
		c0.17,0.65,0.35,1.29,0.5,1.95c0.16,0.67,0.4,1.24,1.14,1.46c0.22,0.07,0.37,0.3,0.19,0.51c-0.38,0.44-0.62,1.03-1.27,1.18
		c-0.19,0.04-0.38,0.14-0.53,0.27c-0.33,0.28-0.6,0.17-0.83-0.1c-0.35-0.41-0.78-0.73-1.17-1.08c-0.15-0.13-0.29-0.28-0.38-0.45
		c-0.21-0.39-0.49-0.74-0.81-1.04c-0.48-0.46-0.88-0.97-1.26-1.5c-0.2-0.28-0.33-0.57-0.33-0.93c-0.01-0.51-0.16-0.99-0.35-1.46
		c-0.34-0.84-0.85-1.58-1.26-2.38c-0.22-0.43-0.49-0.85-0.91-1.06c-1.67-0.88-1.87-2.71-2.7-4.13c-0.04-0.06-0.04-0.15-0.06-0.22
		c-0.34-0.97-1.18-1.42-2.16-1.15c-0.47,0.13-0.93,0.3-1.33,0.59c-0.96,0.7-2.03,1.1-3.2,1.26c-0.47,0.06-0.97,0.1-1.36,0.36
		c-0.65,0.44-1.39,0.6-2.11,0.83c-0.26,0.08-0.51,0.2-0.74,0.35c-1.61,1.05-3.24,2.06-4.8,3.19c-0.76,0.55-1.59,0.87-2.54,0.89
		c-0.65,0.01-1.27,0.17-1.72,0.71c-0.84,0.99-1.85,1.75-3.1,2.17c-0.6,0.2-1.15,0.46-1.64,0.88
		C82.66,326.81,82.39,326.97,82.1,327.11z M87.41,329.64c-1.27-0.58-2.53-1.17-3.79-1.78c0.47-0.41,1.02-0.66,1.65-0.74
		c0.29-0.04,0.61-0.1,0.78-0.33c0.46-0.63,1.18-0.85,1.8-1.21c0.66-0.38,1.33-0.74,2.08-0.92c0.1-0.02,0.22-0.09,0.29,0.02
		c0.03,0.05,0.01,0.15-0.02,0.21c-0.6,1.47-1.18,2.94-2.28,4.13C87.74,329.2,87.57,329.42,87.41,329.64z M142.85,344.57
		c-0.51-0.05-1.01-0.11-1.51-0.16c-0.27-0.47-0.58-0.91-0.91-1.35c-0.8-1.07-1.45-2.25-2.01-3.47c-0.27-0.59-0.58-1.16-0.69-1.87
		c0.46,0.17,0.8,0.41,1.08,0.73c0.24,0.28,0.52,0.51,0.77,0.78c0.77,0.8,1.75,1.35,2.5,2.18c0.69,0.76,1.19,1.61,1.48,2.59
		c0.07,0.23,0.15,0.45,0.25,0.67C143.49,344.64,143.17,344.6,142.85,344.57z M144.54,344.74c-0.11-0.38-0.17-0.78-0.11-1.2
		c0.24,0.02,0.35,0.18,0.49,0.29c0.38,0.32,0.72,0.68,1.02,1.06C145.48,344.84,145.01,344.79,144.54,344.74z M147.31,345.04
		c-0.37-0.68-0.85-1.29-1.38-1.87c-0.42-0.45-0.83-0.88-1.05-1.47c-0.17-0.46-0.42-0.9-0.82-1.19c-0.35-0.26-0.56-0.59-0.68-0.99
		c-0.09-0.31-0.3-0.51-0.57-0.68c-0.37-0.24-0.77-0.42-1.12-0.71c-0.7-0.58-1.33-1.21-1.79-2c-0.35-0.6-0.84-0.97-1.54-1.11
		c-0.44-0.09-0.88-0.24-1.33-0.33c-0.18-0.04-0.35-0.1-0.47-0.25c-0.99-1.25-2.09-2.42-2.96-3.77c-0.46-0.72-0.93-0.85-1.72-0.53
		c-0.38,0.15-0.74,0.35-1.07,0.6c-0.93,0.7-1.96,1.23-3.06,1.6c-0.39,0.13-0.77,0.29-1.12,0.5c-0.4,0.23-0.82,0.39-1.28,0.48
		c-0.56,0.11-1.07,0.33-1.47,0.77c-0.21,0.23-0.5,0.35-0.77,0.48c-1.21,0.58-2.52,0.85-3.81,1.12c-1.62,0.34-2.89,1.15-3.85,2.47
		c-0.08,0.11-0.22,0.22-0.12,0.35c0.09,0.11,0.23,0.01,0.34-0.04c0.39-0.17,0.78-0.33,1.14-0.57c1.15-0.74,2.38-1.28,3.71-1.61
		c0.22-0.05,0.43-0.11,0.7-0.06c-0.18,0.46-0.4,0.82-0.86,1.03c-1.16,0.54-1.71,1.59-2.11,2.72c-0.03,0.08-0.04,0.19,0.06,0.24
		c0.09,0.05,0.18-0.01,0.25-0.06c0.25-0.2,0.51-0.39,0.74-0.61c0.59-0.55,1.13-1.16,1.99-1.31c0.08-0.01,0.16-0.08,0.22-0.15
		c0.48-0.49,0.93-1.01,1.43-1.48c1.14-1.06,2.27-2.15,3.89-2.42c1.11-0.18,2.1-0.6,2.98-1.3c0.25-0.2,0.45-0.11,0.62,0.11
		c0.45,0.57,0.76,1.16,0.64,1.93c-0.1,0.64-0.01,1.28,0.6,1.66c0.71,0.44,0.95,1.09,1.11,1.89c0.27,1.29,0.6,2.6,1.84,3.39
		c0.1,0.06,0.17,0.17,0.24,0.27c0.41,0.65,1,1.08,1.73,1.26c0.47,0.12,0.88,0.32,1.24,0.59c-17.2-2.15-33.58-6.83-49.31-13.88
		c0.19-0.14,0.34-0.33,0.43-0.58c0.13-0.33,0.27-0.65,0.57-0.86c0.88-0.61,1.46-1.45,1.88-2.42c0.18-0.4,0.23-0.95,0.53-1.19
		c0.64-0.52,1.07-1.17,1.49-1.84c0.04-0.06,0.11-0.11,0.16-0.16c0.91-0.79,2.05-1.27,2.9-2.14c0.08-0.08,0.21-0.12,0.33-0.15
		c0.5-0.14,0.95-0.4,1.43-0.61c0.72-0.31,1.33-0.86,2.14-1.01c1.5-0.28,2.97-0.67,4.37-1.29c0.06-0.03,0.14-0.07,0.21,0.03
		c-0.06,0.17-0.15,0.35-0.19,0.54c-0.19,0.91-0.74,1.55-1.52,2.01c-0.21,0.12-0.43,0.24-0.61,0.4c-0.64,0.54-1.5,0.81-2,1.5
		c-0.95,1.33-2.01,2.57-2.85,3.97c-0.41,0.69-0.76,1.43-1.45,1.91c-0.13,0.09-0.22,0.26-0.29,0.4c-0.07,0.13-0.16,0.31-0.05,0.43
		c0.12,0.14,0.28,0.03,0.42-0.02c0.63-0.24,1.05-0.73,1.45-1.22c1.01-1.24,1.96-2.52,2.84-3.86c0.4-0.61,0.91-1.09,1.53-1.49
		c1.16-0.75,2.53-1.16,3.5-2.21c0.13-0.14,0.34-0.22,0.55-0.09c0.65,0.41,1.2,0.93,1.16,1.74c-0.03,0.57,0.21,0.76,0.66,0.9
		c0.5,0.16,0.64,0.4,0.58,0.94c-0.11,0.89-0.28,1.77-0.45,2.65c-0.35,1.79-0.06,3.37,1.52,4.51c0.36,0.26,0.51,0.61,0.53,1.06
		c0.04,0.68,0.08,1.39,0.45,1.98c0.2,0.32,0.18,0.59,0.05,0.9c-0.16,0.36-0.38,0.65-0.73,0.85c-0.47,0.28-0.94,0.57-1.41,0.84
		c-0.22,0.13-0.4,0.28-0.5,0.51c-0.14,0.31-0.04,0.48,0.31,0.44c0.33-0.03,0.67-0.09,0.99-0.18c1.45-0.43,2.82-1.05,4.16-1.76
		c0.87-0.46,1.73-0.97,2.72-1.17c0.96-0.2,1.86-0.53,2.69-1.1c0.89-0.61,1.72-1.29,2.74-1.71c1.95-0.82,3.37-2.25,4.38-4.09
		c0.42-0.76,0.99-1.31,1.89-1.51c1.87-0.4,3.64-1.1,5.34-1.99c0.57-0.3,1.12-0.61,1.75-0.77c0.14-0.03,0.35-0.13,0.38,0.09
		c0.08,0.54,0.43,1.04,0.21,1.64c-0.33,0.88-0.13,1.67,0.45,2.39c0.56,0.69,0.97,1.45,1.23,2.32c0.4,1.37,1.16,2.59,2.04,3.7
		c0.75,0.96,1.65,1.75,2.94,1.93c0.27,0.04,0.55,0.14,0.72,0.36c0.75,0.94,1.61,1.8,1.85,3.05c0.12,0.58,0.43,1.06,0.98,1.31
		c0.63,0.29,0.88,0.8,1.12,1.41c0.42,1.08,0.96,2.09,1.92,2.83c0.47,0.37,0.98,0.72,1.39,1.15
		C149.3,345.28,148.3,345.16,147.31,345.04z"/>
</g>
</svg>
